<svg width="112" height="32" viewBox="0 0 112 32" fill="none" xmlns="http://www.w3.org/2000/svg">
<path d="M8.51562 8.09375V25.9219C8.51562 27.7865 8.02083 29.2344 7.03125 30.2656C6.04167 31.3073 4.61458 31.8281 2.75 31.8281C1.96875 31.8281 1.22396 31.7396 0.515625 31.5625V27.9844C1.05729 28.0781 1.53125 28.125 1.9375 28.125C3.30208 28.125 3.98438 27.401 3.98438 25.9531V8.09375H8.51562ZM3.625 3.71875C3.625 3.04167 3.84896 2.48438 4.29688 2.04688C4.75521 1.60938 5.375 1.39062 6.15625 1.39062C6.9375 1.39062 7.55208 1.60938 8 2.04688C8.45833 2.48438 8.6875 3.04167 8.6875 3.71875C8.6875 4.40625 8.45312 4.96875 7.98438 5.40625C7.52604 5.84375 6.91667 6.0625 6.15625 6.0625C5.39583 6.0625 4.78125 5.84375 4.3125 5.40625C3.85417 4.96875 3.625 4.40625 3.625 3.71875ZM19.8281 25.3125C17.349 25.3125 15.3281 24.5521 13.7656 23.0312C12.2135 21.5104 11.4375 19.4844 11.4375 16.9531V16.5156C11.4375 14.8177 11.7656 13.3021 12.4219 11.9688C13.0781 10.625 14.0052 9.59375 15.2031 8.875C16.4115 8.14583 17.7865 7.78125 19.3281 7.78125C21.6406 7.78125 23.4583 8.51042 24.7812 9.96875C26.1146 11.4271 26.7812 13.4948 26.7812 16.1719V18.0156H16.0156C16.1615 19.1198 16.599 20.0052 17.3281 20.6719C18.0677 21.3385 19 21.6719 20.125 21.6719C21.8646 21.6719 23.224 21.0417 24.2031 19.7812L26.4219 22.2656C25.7448 23.224 24.8281 23.974 23.6719 24.5156C22.5156 25.0469 21.2344 25.3125 19.8281 25.3125ZM19.3125 11.4375C18.4167 11.4375 17.6875 11.7396 17.125 12.3438C16.5729 12.9479 16.2188 13.8125 16.0625 14.9375H22.3438V14.5781C22.3229 13.5781 22.0521 12.8073 21.5312 12.2656C21.0104 11.7135 20.2708 11.4375 19.3125 11.4375ZM36.7812 15.875L34.3438 18.5V25H29.6562V2.25H34.3438V12.5625L36.4062 9.73438L42.2031 2.25H47.9688L39.8906 12.3594L48.2031 25H42.625L36.7812 15.875Z" fill="#1690C3"/>
<path d="M50.9062 25V11.4062H48.3906V8.09375H50.9062V6.65625C50.9062 4.76042 51.4479 3.29167 52.5312 2.25C53.625 1.19792 55.151 0.671875 57.1094 0.671875C57.7344 0.671875 58.5 0.776042 59.4062 0.984375L59.3594 4.48438C58.9844 4.39062 58.526 4.34375 57.9844 4.34375C56.2865 4.34375 55.4375 5.14062 55.4375 6.73438V8.09375H58.7969V11.4062H55.4375V25H50.9062ZM60.4375 16.3906C60.4375 14.7135 60.7604 13.2188 61.4062 11.9062C62.0521 10.5938 62.9792 9.57812 64.1875 8.85938C65.4062 8.14062 66.8177 7.78125 68.4219 7.78125C70.7031 7.78125 72.5625 8.47917 74 9.875C75.4479 11.2708 76.2552 13.1667 76.4219 15.5625L76.4531 16.7188C76.4531 19.3125 75.7292 21.3958 74.2812 22.9688C72.8333 24.5312 70.8906 25.3125 68.4531 25.3125C66.0156 25.3125 64.0677 24.5312 62.6094 22.9688C61.1615 21.4062 60.4375 19.2812 60.4375 16.5938V16.3906ZM64.9531 16.7188C64.9531 18.3229 65.2552 19.5521 65.8594 20.4062C66.4635 21.25 67.3281 21.6719 68.4531 21.6719C69.5469 21.6719 70.401 21.2552 71.0156 20.4219C71.6302 19.5781 71.9375 18.2344 71.9375 16.3906C71.9375 14.8177 71.6302 13.599 71.0156 12.7344C70.401 11.8698 69.5365 11.4375 68.4219 11.4375C67.3177 11.4375 66.4635 11.8698 65.8594 12.7344C65.2552 13.5885 64.9531 14.9167 64.9531 16.7188ZM84 25H79.4688V1H84V25ZM92.5 25H87.9688V8.09375H92.5V25ZM87.7031 3.71875C87.7031 3.04167 87.9271 2.48438 88.375 2.04688C88.8333 1.60938 89.4531 1.39062 90.2344 1.39062C91.0052 1.39062 91.6198 1.60938 92.0781 2.04688C92.5365 2.48438 92.7656 3.04167 92.7656 3.71875C92.7656 4.40625 92.5312 4.96875 92.0625 5.40625C91.6042 5.84375 90.9948 6.0625 90.2344 6.0625C89.474 6.0625 88.8594 5.84375 88.3906 5.40625C87.9323 4.96875 87.7031 4.40625 87.7031 3.71875ZM95.5312 16.3906C95.5312 14.7135 95.8542 13.2188 96.5 11.9062C97.1458 10.5938 98.0729 9.57812 99.2812 8.85938C100.5 8.14062 101.911 7.78125 103.516 7.78125C105.797 7.78125 107.656 8.47917 109.094 9.875C110.542 11.2708 111.349 13.1667 111.516 15.5625L111.547 16.7188C111.547 19.3125 110.823 21.3958 109.375 22.9688C107.927 24.5312 105.984 25.3125 103.547 25.3125C101.109 25.3125 99.1615 24.5312 97.7031 22.9688C96.2552 21.4062 95.5312 19.2812 95.5312 16.5938V16.3906ZM100.047 16.7188C100.047 18.3229 100.349 19.5521 100.953 20.4062C101.557 21.25 102.422 21.6719 103.547 21.6719C104.641 21.6719 105.495 21.2552 106.109 20.4219C106.724 19.5781 107.031 18.2344 107.031 16.3906C107.031 14.8177 106.724 13.599 106.109 12.7344C105.495 11.8698 104.63 11.4375 103.516 11.4375C102.411 11.4375 101.557 11.8698 100.953 12.7344C100.349 13.5885 100.047 14.9167 100.047 16.7188Z" fill="white"/>
</svg>
