<svg xmlns="http://www.w3.org/2000/svg" viewBox="0 0 196.77 381.84"><defs><style>.cls-1{fill:#fff;}</style></defs><g id="Layer_2" data-name="Layer 2"><g id="Layer_2-2" data-name="Layer 2"><polygon class="cls-1" points="163.73 0 163.88 0.28 164.57 0.73 163.73 0"/><path class="cls-1" d="M168.44,5.28c-.07-.14,0-.13,0-.28l-2.52-1.87C166.51,4.4,168,4.44,168.44,5.28Z" transform="translate(-0.86 -1.7)"/><path class="cls-1" d="M169,6a3.29,3.29,0,0,0,1.45,1.34C170,7.19,169.05,5.61,169,6Z" transform="translate(-0.86 -1.7)"/><path class="cls-1" d="M191.11,102.87l.11-.35A1.74,1.74,0,0,0,191.11,102.87Z" transform="translate(-0.86 -1.7)"/><path class="cls-1" d="M178.26,127v.38c1.49-2.11,3.08-4.35,4.68-6.63a59.08,59.08,0,0,0,4.33-7.1l-.11.36a81.09,81.09,0,0,0,10.25-38.53c0,.21.09.28.11.5a14.36,14.36,0,0,1-.17-2.13c.06-.19.11.21.13.45a13.71,13.71,0,0,0,.13-2.58c0-1-.05-2-.16-3-.16-2-.43-3.81-.37-4.73-.12-.8-.32-1.14-.4-.67a89.94,89.94,0,0,0-10-31.15c-.18-.49-.13-.62.06-.56-2.38-4-4.86-8-7.48-12s-5.46-7.85-8.41-11.57c-.37-.17.48.86-.25.25,1.74,2.49,3.81,4.1,5.18,6.53l-.34-.19c1.1,1.68.57.09,1.63,1.9.35.75-.29-.06-.08.27,2.5,3.46,4.74,7.29,7.06,10.59.15,1,2.19,4,2.53,5.62A13.68,13.68,0,0,0,188,35.28q2.25,5.11,4.07,10.47A103.44,103.44,0,0,1,195,56.68a81.88,81.88,0,0,1,1.46,22.71A46.36,46.36,0,0,1,195,90.88a124.49,124.49,0,0,1-3.79,12s-.06,0-.06,0a53.17,53.17,0,0,1-4.05,9.26c-.37.87-.71,1.75-1.1,2.6a97.22,97.22,0,0,1-19.29,23,72.25,72.25,0,0,1-12.38,8.67,44.71,44.71,0,0,1-14.07,5.13,25.37,25.37,0,0,1-8.24.12,38.11,38.11,0,0,1-7.82-2.22A27.77,27.77,0,0,1,111.88,140a16.05,16.05,0,0,1-1-1.62,14.12,14.12,0,0,1-.76-1.69,7.08,7.08,0,0,1-.44-3.48,10.46,10.46,0,0,1,3.12-6.49,16.76,16.76,0,0,1,6.67-3.83l1-.33c.32-.1.65-.16,1-.25.65-.15,1.31-.33,2-.47,1.35-.19,2.7-.5,4.09-.58,0,.07.16.1-.41.16l2.38-.16c.78,0,1.57,0,2.34,0,1.55,0,3.08.13,4.59.25s3,.33,4.51.5,3,.43,4.46.66l0,.07A46.41,46.41,0,0,1,166,132.5a81.38,81.38,0,0,1,15.38,16.75,91.32,91.32,0,0,1,11.17,25.56,104.75,104.75,0,0,1,3.52,28.51l-.13,0a105.15,105.15,0,0,1-2.71,22.18,173.09,173.09,0,0,1-6.67,21.3A211.43,211.43,0,0,1,176.15,268a124.88,124.88,0,0,1-13.6,19.53c-1.68,1.75-3.3,3.79-5.12,5.78s-3.51,4.2-5.41,6.21a88.9,88.9,0,0,1-11.11,10.84c-7.24,5.93-14.54,11.49-21.91,17S104,338,96.09,342.94q-2.85,1.55-5.66,3.13l-5.71,3-2.83,1.53L79,352.08,73.28,355c-1.92.95-3.86,1.82-5.79,2.72s-3.85,1.81-5.82,2.59c-3.92,1.61-7.81,3.22-11.79,4.5-1.8.83-3.68,1.59-5.62,2.3s-4,1.3-6,1.93c-4.08,1.29-8.33,2.38-12.49,3.81l.35.06c-3.13.54-6.52,2.74-8.62,2.59l.31-.13c-1.71.11-3.48,2-4.58,1.82l-.21.26c-1.94.58-.29-.14-1.82.19-.56.17-.12.39-1.33.6-.46-.68-4.75,1.45-5.11.64,1.07-.29-1.76.12.59-.7-.7.1-4,1-3.58,1.3-.18.44-1.38,1.11.69.89l.33-.39c.74.1.54,0,.84.15,2.61-.66,3.07-.35,5-.69,0,0,0,0,0,0a15.29,15.29,0,0,1,4-1.18l.45,0c.7.14,2.76-1.5,2.13-.72,2.62-.84,5.43-1.71,8.33-2.59l8.75-2.86c.76-.44,4.45-1.49,3-1.45,1.6-.06,6-1.48,7.54-2.06,0,.06-.09.13-.35.2,3.32-.5,3.45-1.91,6.6-2.3.25-.69,5.31-1.82,6.66-3.12.4,0,.56,0,.47.15l7.89-3.21,7.22-3.15c1.75-1,3.93-2.08,6.07-3.08A30.37,30.37,0,0,0,83,351c1.29-.61,3-1.39,4.8-2.29.91-.45,1.84-.92,2.75-1.42s1.79-1.06,2.63-1.61l-.3.26c1.95-1.13,4.15-2.4,6.16-3.62s3.79-2.52,5-3.5c1.46-.18,3.08-1.27,4.8-2.2,1.18-.94,3-2.24,5.09-3.64s4.16-3,6-4.44c.75-.17,3-2.29,3.44-2.12,9.89-8.28,22.08-18.46,31.88-28.19l-.11.17c1-1.49,2-3.36,3-4.9.14-.11.18-.05-.07.23,1.64-1.89,3.39-3.48,4.94-5.46,0,.06,0,.06-.16.42a31.3,31.3,0,0,1,2.36-2.8,24.2,24.2,0,0,0,2.36-3.21l.18-.06.94-1.51c.09.12.21.3-.39,1A147.33,147.33,0,0,0,185,253.89a144,144,0,0,0,9.88-31.66l0,.82c.18-1.42.43-2.84.54-4.27.06,0,.07.24.07.45.24-1.35.44-2.71.62-4.09a38.57,38.57,0,0,0,.39-4.15c.13-2.77.31-5.51.35-8.18.06,0,.18.83.27.09-.3-4,.42-6.39-.47-8.33,0-.19.2-.32.28.08a110.13,110.13,0,0,0-7.54-32.42c-2.11-4.12-4.33-8.46-7-12.63a56.71,56.71,0,0,0-9.16-11.41l.13-.07a70.86,70.86,0,0,0-15.05-11.45A46.18,46.18,0,0,0,140,120.94c-1.32-.18-2.54-.32-3.71-.37s-2.27-.17-3.39-.15-2.24,0-3.41,0-2.39.12-3.72.25l-.15-.15a51.18,51.18,0,0,0-6.74,1.55,25.56,25.56,0,0,0-3.31,1.26l-1.57.87c-.52.31-1,.7-1.48,1a11.36,11.36,0,0,0-4,6,10.79,10.79,0,0,0-.29,3.67,8.84,8.84,0,0,0,1.23,3.4l-.51-.5a8.75,8.75,0,0,1,.8,1.31c.34.49.62,1.09,1,1.56.66,1,1.3,1.65,1.37,1.23a16.56,16.56,0,0,0,.94,1.37,64.43,64.43,0,0,0,7.39,5.34,25.34,25.34,0,0,0,9.55,3.46l-.53,0c1,.15,2.13.37,3.18.45.52.07,1,.08,1.51.12l1.29.09a5,5,0,0,1-.62.11,24.18,24.18,0,0,0,10.08-1.35,58.48,58.48,0,0,0,9.53-4.29l-.56.62c1.39-.93,3.45-2.07,5.52-3.44a55.43,55.43,0,0,0,5.87-4.31l-.13.27c.54-.5,1.07-1,1.59-1.55l.21.17A82.65,82.65,0,0,0,178.26,127Z" transform="translate(-0.86 -1.7)"/><path class="cls-1" d="M197.48,74.33s0,0,0,.06C197.49,74.56,197.49,74.47,197.48,74.33Z" transform="translate(-0.86 -1.7)"/><path class="cls-1" d="M9.28,379.29l-.68.13A2.65,2.65,0,0,0,9.28,379.29Z" transform="translate(-0.86 -1.7)"/><polygon class="cls-1" points="16.89 381.29 16.9 381.21 16.8 381.41 16.89 381.29"/><path class="cls-1" d="M17.36,383.4l0,.15.32-.58C17.69,382.61,17.34,383.65,17.36,383.4Z" transform="translate(-0.86 -1.7)"/><path class="cls-1" d="M17.34,383.33c0-.16-.12.12-.16.21C17.26,383.32,17.26,383.64,17.34,383.33Z" transform="translate(-0.86 -1.7)"/><path class="cls-1" d="M12.25,382h0S12.26,382,12.25,382Z" transform="translate(-0.86 -1.7)"/><path class="cls-1" d="M10.66,382.65l-.08.23c.36-.34.52.15.83.05l0,.07a5.25,5.25,0,0,0,2.06.08,1.09,1.09,0,0,0-.06.11c.05-.07.13-.21.16-.18a.27.27,0,0,1-.06.12c0,.42.47-.12.48.19.05,0,.11-.18.12-.31a4.93,4.93,0,0,0,1.71,0,.63.63,0,0,1,0,.3c.62-.5,1-.12,1.44.11.06-.16,0-.18.1-.34-.09-.24-.38.32-.43,0l.06-.15c-.07-.13-.13.39-.18.16s.07-.2.05-.22c-.22,0-.39-.19-.7.13.05-.35-.21-.07-.2-.42-.09.12-.13.07-.22.29a10.69,10.69,0,0,0-2.22-.49c-.53.56-.72-.34-1.2-.24a.19.19,0,0,0,0-.07.42.42,0,0,1-.53,0l-.21.23c-.8-.84-1.89-.71-2.8-1.22-1.06-.48-1.89-1.23-3.22-.67,0-.06,0-.1.06-.12-.35,0-.56-.27-.9-.21l0-.07a1.29,1.29,0,0,1-.31.08l-.22,0a1.41,1.41,0,0,1-.38-.1,2.08,2.08,0,0,0-1.17,0l-.28-.1a8.44,8.44,0,0,0,1.19-1.71l.1.08c.26-.76,1.28-.85,1.59-1.57.73-.39.42-1.71,1.23-2,.82.06.13-1.34,1-1.25,1.39,0,1.46-1.16,1.57-2.27.83-.42.65-1.68,1.76-1.84-.12-.61,1-.25,1.16-.67l-.13-.1c.49.21-.33-.72.32-.31v0c.35.19-.57-.72-.19-.47l-.13-.13c0-.11.17.13.28.12s-.26-.23-.14-.21c.61.49,0-.3.7.26,0,0,.32.15.38.36.09,0,.17-.13-.13-.35a2.76,2.76,0,0,0-.81-.65l.21.2a2.17,2.17,0,0,1-.3-.2c-.12.08-.45-.18-.64-.21,0,0,0,0,0,0,.22.27,0,.2-.06.21l-.14-.08c-.27-.19.4.53,0,.13a1.85,1.85,0,0,1-.46.77c.14.18-.16.17.2.39-.41-.25-.65-.15-.69-.08s-.07-.06-.05-.06c-.58-.27.32.51-.36.14.39.37-.31.11.12.58a2,2,0,0,1-.26-.19c-.19.2-.53.31-.7.47.24.45-.47.23-.08.78-.19,0-.55,0-.48.34l0-.06a.69.69,0,0,0-.06.81c-.51-.35-.48-.2-.7-.25.13.3-.13.47-.07.81-.24-.15,0,.23-.36,0,.21,1-.51,1.43-1.41,1.56v0c.11.22.44.62.6.87,0,0-.08-.06-.07-.07s-.41,0-.43.12A.48.48,0,0,1,5.7,374c.07.21-.41,0-.25.29l-.09-.07.07.17c-.11-.09-.26-.23-.2-.23-.79.73-.94,2-1.72,2.8l-.08-.11,0,.31a.32.32,0,0,1-.09-.1c-.36.05-.24.52-.45.68,0,0-.13-.16-.21-.18.17.38-.73.12-.13.61a.52.52,0,0,1-.24-.13,5.42,5.42,0,0,1-1.5,2c.18.07.23.15.2.26a3.94,3.94,0,0,1,.74.16,1.91,1.91,0,0,0,.93,0l-.16.1a1.77,1.77,0,0,1,1.18.14,3.26,3.26,0,0,0,.92.38c.24.13.45,0,.71.08l0,.17c.61-.52.74.83,1.38.25l-.09.22c.17-.33.23.2.38-.41l0,.2c.53-.71.45.53,1,.11l-.06.14c.13-.08.27-.14.3,0a.31.31,0,0,1-.05.1c.14.66.67.12,1,.24l-.11.25c.24-.27.45.11.7,0l0,.13.15-.15-.06.25C10.07,382.76,10.39,382.61,10.66,382.65Z" transform="translate(-0.86 -1.7)"/><path class="cls-1" d="M13.47,383.13Z" transform="translate(-0.86 -1.7)"/><path class="cls-1" d="M11.22,366.94h.07S11.24,366.94,11.22,366.94Z" transform="translate(-0.86 -1.7)"/></g></g></svg>