<svg xmlns="http://www.w3.org/2000/svg" viewBox="0 0 254.67 494.39"><defs><style>.cls-1{fill:#fff;}</style></defs><g id="Layer_2" data-name="Layer 2"><g id="Layer_2-2" data-name="Layer 2"><path class="cls-1" d="M2.47,488.57c35.16-8.95,69.58-21.19,102-37.64,27.94-14.2,54.48-31.53,77.7-52.65,20-18.15,37.51-39.16,50.26-63,11.48-21.45,18.85-45.18,20.23-69.53,1.79-31.53-7.27-65.26-29.32-88.61-9.16-9.71-20.67-17.45-33.69-20.79a86.64,86.64,0,0,0-24.17-2.43c-5.84.19-11.92,1.06-17.2,3.68-6.34,3.15-11.73,10.15-9.62,17.58,3.41,12.07,17.72,19,29,21.07,17.92,3.35,36.46-8.34,49.18-19.72a114.75,114.75,0,0,0,36.06-63.29c6-31.37-3.19-62.9-20.55-89.18A192.3,192.3,0,0,0,213.53.26c-.63-.69-2.52.13-1.83.89,22.84,25,40.52,56.24,41,90.84.35,25.45-8.75,50.38-24.61,70.19-11.87,14.84-28.9,29.3-48.21,32.59-11.15,1.9-23.27-2-31.72-9.36-6.25-5.48-10.82-13.85-5.31-21.46,7.07-9.74,23.07-9.11,33.54-8.13A67.79,67.79,0,0,1,214,171c23.89,19.64,35.59,51.65,36.74,81.89.93,24.51-4.76,49.05-14.89,71.3-10.61,23.3-26,44.19-43.92,62.42-20.72,21.1-44.85,38.74-70.48,53.41C91.94,457,60.33,470,27.85,480q-12.78,3.92-25.76,7.2c-1.25.31-.87,1.72.38,1.41Z"/><path class="cls-1" d="M13.57,472.24,1.79,486.35l-1.71,2c-.12.16-.11.29.1.35l17.4,4.91,2.46.7a2.11,2.11,0,0,0,1.41-.24c.18-.11.68-.44.23-.57l-17.4-4.91-2.47-.7.1.35,11.77-14.11,1.71-2c.43-.52-1.49-.28-1.82.11Z"/></g></g></svg>