<svg xmlns="http://www.w3.org/2000/svg" viewBox="0 0 196.37 386.3"><defs><style>.cls-1{fill:#fff;}</style></defs><g id="Layer_2" data-name="Layer 2"><g id="Layer_2-2" data-name="Layer 2"><path class="cls-1" d="M.47,381.93c27.59-7,54.58-16.65,80-29.62,21.73-11.11,42.36-24.68,60.37-41.21,15.57-14.3,29.23-30.89,39-49.69a132,132,0,0,0,15.12-54.14c1.21-24.44-5.5-50.49-22.34-68.83-7.14-7.78-16.2-14-26.49-16.7a65.2,65.2,0,0,0-19.18-1.89c-4.58.21-9.4.94-13.43,3.27a13.12,13.12,0,0,0-6.29,14.77c2.61,9.56,14,15.07,22.88,16.54,6.22,1,12.62-.61,18.31-3.06A70.44,70.44,0,0,0,168.29,138a89.23,89.23,0,0,0,27.08-50.35c4-24.25-2.94-48.49-16.28-68.8A150,150,0,0,0,164.31,0c-.07-.08-.64,2.07-.16,2.6C182,22.08,196,46.71,195.93,73.78c-.08,19.63-7.83,38.78-20.37,53.75-9.37,11.18-22.6,22-37.49,24.2a31.46,31.46,0,0,1-24.56-7.46c-2.51-2.21-5.65-5.58-6.09-9.08-.29-2.35,1.12-4.93,2.62-6.62,6.14-6.91,17.94-6.51,26.24-5.73a53.18,53.18,0,0,1,29.17,11.61c18.63,15.08,28,39.77,28.94,63.22.78,19.14-4,38.32-12,55.6-8.44,18.12-20.63,34.34-34.7,48.47C131.5,318,112.76,331.58,92.87,342.9a357.65,357.65,0,0,1-72.34,30.73q-10,3.06-20.06,5.61c-.58.14-.24,2.75,0,2.69Z" transform="translate(-0.13)"/><path class="cls-1" d="M10.89,366.71l-9.17,11-1.33,1.6c-.27.32-.45,2.49.08,2.64L14,385.75l1.92.55c.21.05.6-2.53,0-2.7L2.39,379.78l-1.92-.54.08,2.64,9.17-11,1.33-1.59a2.76,2.76,0,0,0,.21-1.66c0-.11-.15-1.2-.37-.94Z" transform="translate(-0.13)"/></g></g></svg>