<svg xmlns="http://www.w3.org/2000/svg" viewBox="0 0 196.09 386.34"><defs><style>.cls-1{fill:#fff;}</style></defs><g id="Layer_2" data-name="Layer 2"><g id="Layer_2-2" data-name="Layer 2"><path class="cls-1" d="M.47,382c27.68-7,54.76-16.72,80.2-29.75,21.76-11.15,42.4-24.78,60.4-41.37,15.52-14.31,29.14-30.92,38.86-49.72a131.42,131.42,0,0,0,14.85-53.91c1.15-24.48-5.4-50.4-22.28-68.8-7.17-7.81-16.27-14.05-26.63-16.71a65.72,65.72,0,0,0-19.22-1.81c-4.54.22-9.33,1-13.31,3.33A13.21,13.21,0,0,0,107.28,138c.94,3.68,3.65,6.86,6.48,9.27a33.73,33.73,0,0,0,16.54,7.27c6.24,1,12.68-.73,18.37-3.22a70.91,70.91,0,0,0,20-13.62,88.66,88.66,0,0,0,26.78-50.89c3.6-24.25-3.28-48.24-16.72-68.47A150.91,150.91,0,0,0,164.23,0c.33.35-.52,2.12,0,2.69C182,22.14,196.29,47,196.08,74.06c-.16,19.75-8.21,39.14-21,54.08-9.34,11-22.48,21.53-37.18,23.65a31.51,31.51,0,0,1-24.34-7.39c-2.84-2.44-5.4-5.59-6.3-9.29-.14-.58-.06-.21,0-.35a6.28,6.28,0,0,1,.12-.87,9.5,9.5,0,0,1,.58-2,11.18,11.18,0,0,1,2.28-3.55c6.43-6.78,18.28-6.27,26.71-5.42a52.89,52.89,0,0,1,28.4,11.45c18.77,15.06,28.32,40.06,29.21,63.61.72,19.19-4.19,38.47-12.34,55.74-8.52,18.07-20.71,34.25-34.8,48.33C131.29,318.2,112.65,331.69,92.87,343a357.65,357.65,0,0,1-72.34,30.73q-10,3-20.06,5.6c-.4.11,0,2.7,0,2.7Z" transform="translate(-0.27)"/><path class="cls-1" d="M11,366.71l-9.17,11L.47,379.28c-.21.26-.31,2.61,0,2.7L14,385.8l1.92.54s.43-2.57,0-2.69L2.39,379.83l-1.92-.55V382l9.17-11L11,369.4c.24-.28.15-1,.15-1.34a7.71,7.71,0,0,0,0-1,2.35,2.35,0,0,0-.11-.39Z" transform="translate(-0.27)"/></g></g></svg>